# xmcd CD database file
#
# Track frame offsets:
#	183
#	13718
#	32683
#	47988
#	69418
#	86310
#	98283
#	113263
#	126310
#	138020
#	153653
#	166530
#
# Disc length: 2466 seconds
#
# Revision: 5
# Processed by: cddbd v1.5.2PL0 Copyright (c) Steve Scherf et al.
# Submitted via: CDex 1.51
#
DISCID=8209a00c
DTITLE=Schürzenjäger - A Weihnacht wie's früher war
DYEAR=1900
DGENRE=Folk
TTITLE0=A Weihnacht wie's früher war
TTITLE1=Ein Kind läuft durch die Straßen
TTITLE2=Weihnacht ist erst, wenn du bei mir bist
TTITLE3=In so viel Herzen ist es ewig Winter
TTITLE4=Wunderstern
TTITLE5=A so a Schlittenfahrt
TTITLE6=So still is jetzt die Zeit
TTITLE7=Die Sterne am Tiroler Himmel
TTITLE8=Des Jahr macht langsam zua
TTITLE9=Christkind, i glaub no immer an dich
TTITLE10=An alle, die draußen leben
TTITLE11=Stille Nacht, heilige Nacht
EXTD=
EXTT0=
EXTT1=
EXTT2=
EXTT3=
EXTT4=
EXTT5=
EXTT6=
EXTT7=
EXTT8=
EXTT9=
EXTT10=
EXTT11=
PLAYORDER=
